HIERARCHY
ROOT Hips
{
  OFFSET 0.292604 18.4424 0.19921
  CHANNELS 6 Xposition Yposition Zposition Zrotation Xrotation Yrotation
  JOINT LHipJoint
  {
    OFFSET 0 0 0
    CHANNELS 3 Zrotation Xrotation Yrotation
    JOINT LeftUpLeg
    {
      OFFSET 1.8 -1.4 0.085
      CHANNELS 3 Zrotation Xrotation Yrotation
      JOINT LeftLeg
      {
        OFFSET 2.215 -6 0
        CHANNELS 3 Zrotation Xrotation Yrotation
        JOINT LeftFoot
        {
          OFFSET 2.5 -6.9 0
          CHANNELS 3 Zrotation Xrotation Yrotation
          JOINT LeftToeBase
          {
            OFFSET 0.2 -0.5 1.95
            CHANNELS 3 Zrotation Xrotation Yrotation
            End Site
            {
              OFFSET 0 0 1
            }
          }
        }
      }
    }
  }
  JOINT RHipJoint
  {
    OFFSET 0 0 0
    CHANNELS 3 Zrotation Xrotation Yrotation
    JOINT RightUpLeg
    {
      OFFSET -1.8 -1.4 0.085
      CHANNELS 3 Zrotation Xrotation Yrotation
      JOINT RightLeg
      {
        OFFSET -2.215 -6 0
        CHANNELS 3 Zrotation Xrotation Yrotation
        JOINT RightFoot
        {
          OFFSET -2.5 -6.9 0
          CHANNELS 3 Zrotation Xrotation Yrotation
          JOINT RightToeBase
          {
            OFFSET -0.2 -0.5 1.95
            CHANNELS 3 Zrotation Xrotation Yrotation
            End Site
            {
              OFFSET 0 0 1
            }
          }
        }
      }
    }
  }
  JOINT LowerBack
  {
    OFFSET 0 0 0
    CHANNELS 3 Zrotation Xrotation Yrotation
    JOINT Spine
    {
      OFFSET -0.087 1.94 -0.2889
      CHANNELS 3 Zrotation Xrotation Yrotation
      JOINT Spine1
      {
        OFFSET 0 1.95 0.06
        CHANNELS 3 Zrotation Xrotation Yrotation
        JOINT Neck
        {
          OFFSET 0 0 0
          CHANNELS 3 Zrotation Xrotation Yrotation
          JOINT Neck1
          {
            OFFSET 0 1.6 0.34
            CHANNELS 3 Zrotation Xrotation Yrotation
            JOINT Head
            {
              OFFSET 0 1.667 -0.24
              CHANNELS 3 Zrotation Xrotation Yrotation
              End Site
              {
                OFFSET 0 1.686 -0.12
              }
            }
          }
        }
        JOINT LeftShoulder
        {
          OFFSET 0 0 0
          CHANNELS 3 Zrotation Xrotation Yrotation
          JOINT LeftArm
          {
            OFFSET 2.7 1.55 -0.73
            CHANNELS 3 Zrotation Xrotation Yrotation
            JOINT LeftForeArm
            {
              OFFSET 5.45 0 0
              CHANNELS 3 Zrotation Xrotation Yrotation
              JOINT LeftHand
              {
                OFFSET 3.45 0 0
                CHANNELS 3 Zrotation Xrotation Yrotation
                JOINT LeftFingerBase
                {
                  OFFSET 0 0 0
                  CHANNELS 3 Zrotation Xrotation Yrotation
                  JOINT LeftHandIndex1
                  {
                    OFFSET 0.75 0 0
                    CHANNELS 3 Zrotation Xrotation Yrotation
                    End Site
                    {
                      OFFSET 0.6 0 0
                    }
                  }
                }
                JOINT LThumb
                {
                  OFFSET 0 0 0
                  CHANNELS 3 Zrotation Xrotation Yrotation
                  End Site
                  {
                    OFFSET 0.59 0 0.59
                  }
                }
              }
            }
          }
        }
        JOINT RightShoulder
        {
          OFFSET 0 0 0
          CHANNELS 3 Zrotation Xrotation Yrotation
          JOINT RightArm
          {
            OFFSET -2.7 1.55 -0.73
            CHANNELS 3 Zrotation Xrotation Yrotation
            JOINT RightForeArm
            {
              OFFSET -5.45 0 0
              CHANNELS 3 Zrotation Xrotation Yrotation
              JOINT RightHand
              {
                OFFSET -3.45 0 0
                CHANNELS 3 Zrotation Xrotation Yrotation
                JOINT RightFingerBase
                {
                  OFFSET 0 0 0
                  CHANNELS 3 Zrotation Xrotation Yrotation
                  JOINT RightHandIndex1
                  {
                    OFFSET -0.75 0 0
                    CHANNELS 3 Zrotation Xrotation Yrotation
                    End Site
                    {
                      OFFSET -0.6 0 0
                    }
                  }
                }
                JOINT RThumb
                {
                  OFFSET 0 0 0
                  CHANNELS 3 Zrotation Xrotation Yrotation
                  End Site
                  {
                    OFFSET -0.59 0 0.59
                  }
                }
              }
            }
          }
        }
      }
    }
  }
}
MOTION
Frames:	7
Frame Time:	0.00833333
4.5771 17.9714 -4.35944 4.65889 3.70558 -48.4883 -3.97569e-016 3.97569e-016 -3.18055e-015 -33.8698 2.37077 -4.72766 0.478406 4.89585 21.9807 20.5048 -10.4449 -3.05843 3.18055e-015 1.59028e-015 -2.22639e-014 -3.97569e-016 3.97569e-016 -3.18055e-015 27.7583 -31.0924 10.7269 -3.0801 35.7878 -19.4785 -10.5831 -2.35953 0.52037 9.72181e-016 7.95139e-016 6.36111e-015 -3.97569e-016 3.97569e-016 -3.18055e-015 -0.283645 11.6005 -1.74148 3.04858 -9.8966 -2.1264 6.96663 -16.4445 9.41978 3.82122 20.2561 8.00123 -23.8239 -1.56226 39.5934 4.59871 -0.282947 9.8683 -90.8082 28.6309 -49.5865 14.8062 13.905 -67.2471 28.5869 -7.32917 -54.1505 -6.76018e-007 -5.11415e-007 1.7458e-006 -3.97569e-016 3.18055e-015 -1.98785e-015 3.97569e-016 -3.18055e-015 -0 10.8727 -0.0256131 -3.64213 67.4839 -0.841182 -2.47913 1.30385 42.4145 28.8047 -8.87989 2.27084 5.92621 -1.66619e-006 4.11981e-007 -3.78908e-008 -2.38542e-015 0 -0 1.59028e-015 1.59028e-015 -0 
4.64453 17.9593 -4.36091 4.8462 3.15831 -48.5815 -3.97569e-016 0 -0 -34.6061 3.13548 -4.84682 0.415109 3.5369 22.2448 21.1073 -10.2007 -3.02327 1.85384e-030 4.77083e-015 -2.22639e-014 -3.97569e-016 0 -0 27.733 -31.7574 11.073 -2.87245 36.3609 -20.428 -10.4299 -2.59541 0.579935 2.28602e-015 1.19271e-015 -0 -3.97569e-016 0 -0 -0.993423 11.8686 -1.94984 3.34249 -9.96181 -2.42159 6.92312 -16.3386 9.57542 3.71759 20.3547 8.18545 -23.8226 -1.66715 40.1183 3.57284 -0.268555 8.5027 -90.3884 27.6887 -50.5913 14.8516 14.2397 -65.9704 29.1551 -7.67996 -54.2055 -6.76018e-007 -5.11415e-007 1.7458e-006 -3.97569e-015 -9.54166e-015 -2.38542e-015 -7.95139e-016 -6.36111e-015 -2.78299e-015 9.99791 -0.0414826 -3.73536 67.564 -0.861043 -2.98186 1.57658 42.3772 28.7039 -7.30832 2.48554 5.54444 -1.66619e-006 4.11981e-007 -3.78908e-008 -7.95139e-016 0 -0 7.95139e-016 0 6.36111e-015 
4.70613 17.947 -4.35843 4.95233 2.63021 -48.7746 -1.19271e-015 -1.59028e-015 -3.18055e-015 -35.287 3.89579 -4.91029 0.357276 2.22807 22.6122 21.7177 -9.97738 -2.98621 -1.59028e-015 4.77083e-015 -2.54444e-014 -1.19271e-015 -1.59028e-015 -3.18055e-015 27.7493 -32.2765 11.3817 -2.58598 36.8228 -21.295 -10.1702 -2.8168 0.648831 3.97569e-016 -1.59028e-015 3.18055e-015 -1.19271e-015 -1.59028e-015 -3.18055e-015 -1.59265 12.1836 -2.10405 3.53898 -10.0717 -2.64559 6.91552 -16.2044 9.70109 3.66381 20.4823 8.32901 -23.8787 -1.75534 40.6003 2.62817 -0.222251 7.12249 -89.9656 26.8007 -51.4909 14.8605 14.541 -64.5367 29.8205 -8.0742 -54.1316 -6.76018e-007 -5.11415e-007 1.7458e-006 0 0 -5.56597e-015 -1.98785e-015 -6.36111e-015 1.59028e-015 9.25544 -0.05183 -3.81026 67.5375 -0.946658 -3.4668 1.86702 42.3603 28.539 -5.55557 2.72428 5.21254 -1.66619e-006 4.11981e-007 -3.78908e-008 -3.18055e-015 -3.18055e-015 3.18055e-015 -2.38542e-015 1.59028e-015 -0 
4.76228 17.9338 -4.35192 4.99876 2.14797 -49.0365 -1.98785e-016 -1.19271e-015 1.59028e-014 -35.8939 4.58491 -4.93903 0.313228 1.09884 23.0485 22.2187 -9.90863 -2.97658 1.59028e-015 3.18055e-015 -1.59028e-014 -1.98785e-016 -1.19271e-015 1.59028e-014 27.8251 -32.6702 11.6759 -2.25222 37.1563 -22.153 -9.79914 -3.05153 0.733319 6.36111e-015 2.18663e-015 6.36111e-015 -1.98785e-016 -1.19271e-015 1.59028e-014 -2.08278 12.4757 -2.2275 3.6834 -10.1865 -2.82543 6.91968 -16.0465 9.81195 3.62842 20.6341 8.45487 -23.9643 -1.81213 41.0672 1.74255 -0.153889 5.75787 -89.5876 25.9336 -52.2406 14.8806 14.8539 -62.9769 30.5036 -8.45562 -53.9243 -6.76018e-007 -5.11415e-007 1.7458e-006 -1.59028e-015 -6.36111e-015 -4.77083e-015 -0 0 1.19271e-015 8.57015 -0.0585534 -3.86903 67.475 -1.06048 -3.92566 2.02036 42.4567 28.3953 -3.72779 2.97218 4.87007 -1.66619e-006 4.11981e-007 -3.78908e-008 -3.18055e-015 -1.59028e-015 3.18055e-015 3.18055e-015 -3.18055e-015 -6.36111e-015 
4.81331 17.9189 -4.34127 5.00644 1.73569 -49.3382 3.97569e-016 1.59028e-015 9.54166e-015 -36.4065 5.13552 -4.9521 0.282708 0.276213 23.5204 22.4952 -10.1273 -3.02317 1.23589e-030 3.18055e-015 -2.22639e-014 3.97569e-016 1.59028e-015 9.54166e-015 27.9814 -32.955 11.9787 -1.9014 37.3394 -23.0712 -9.31296 -3.32829 0.839878 1.59028e-015 -1.98785e-015 3.18055e-015 3.97569e-016 1.59028e-015 9.54166e-015 -2.46328 12.6797 -2.34241 3.81883 -10.2695 -2.98659 6.91235 -15.8687 9.92262 3.58101 20.8058 8.58529 -24.054 -1.82556 41.5461 0.897704 -0.0737024 4.44195 -89.3039 25.0613 -52.7988 14.9591 15.2348 -61.3216 31.1303 -8.76897 -53.5703 -6.76018e-007 -5.11415e-007 1.7458e-006 -1.59028e-015 -1.59028e-014 -1.59028e-015 2.38542e-015 0 -7.95139e-016 7.86969 -0.063398 -3.91352 67.4453 -1.16752 -4.34963 1.88723 42.7592 28.3531 -1.92103 3.21548 4.45705 -1.66619e-006 4.11981e-007 -3.78908e-008 -2.38542e-015 -3.18055e-015 1.59028e-015 -7.95139e-016 -1.59028e-015 -0 
4.85914 17.9036 -4.32629 4.95056 1.39379 -49.7072 -3.97569e-016 1.98785e-016 -3.18055e-015 -36.8059 5.51072 -4.93325 0.244512 -0.17769 24.0748 22.5297 -10.6783 -3.13074 -7.95139e-016 3.18055e-015 -1.90833e-014 -3.97569e-016 1.98785e-016 -3.18055e-015 28.2456 -33.0836 12.2886 -1.5601 37.3326 -24.0001 -8.72672 -3.67282 0.974383 -1.59028e-015 -1.98785e-015 -3.18055e-015 -3.97569e-016 1.98785e-016 -3.18055e-015 -2.70225 12.8377 -2.44186 3.9245 -10.3535 -3.11838 6.89696 -15.6608 10.0321 3.52571 21.0076 8.71879 -24.1742 -1.82846 42.0361 0.159174 0.0111796 3.23222 -89.1557 24.2497 -53.151 15.1863 15.694 -59.555 31.7633 -9.03095 -52.9585 -6.76018e-007 -5.11415e-007 1.7458e-006 0 0 -4.77083e-015 7.95139e-016 3.18055e-015 3.18055e-015 7.16252 -0.0648793 -3.93865 67.4327 -1.28892 -4.72726 1.47454 43.2986 28.3685 -0.0370111 3.46491 3.95483 -1.66619e-006 4.11981e-007 -3.78908e-008 -2.78299e-015 -1.59028e-015 -4.77083e-015 -1.19271e-015 1.59028e-015 -1.59028e-015 
4.89967 17.8872 -4.3072 4.84138 1.10917 -50.1313 -1.98785e-016 5.96354e-016 6.36111e-015 -37.1217 5.77972 -4.88589 0.20548 -0.391499 24.6777 22.3958 -11.4499 -3.28084 7.95139e-016 3.18055e-015 -1.59028e-014 -1.98785e-016 5.96354e-016 6.36111e-015 28.5762 -33.09 12.5905 -1.2086 37.1854 -24.9325 -8.02766 -4.04673 1.12824 2.38542e-015 7.95139e-016 -0 -1.98785e-016 5.96354e-016 6.36111e-015 -2.82966 12.9474 -2.51976 3.99632 -10.429 -3.21654 6.88273 -15.4299 10.1334 3.47484 21.2328 8.84495 -24.3167 -1.79949 42.5234 -0.519987 0.112455 2.05965 -89.0635 23.4545 -53.3454 15.4452 16.1928 -57.671 32.3888 -9.25455 -52.1914 -6.76018e-007 -5.11415e-007 1.7458e-006 3.97569e-015 3.18055e-015 -7.15625e-015 -0 0 7.95139e-016 6.48 -0.063384 -3.94795 67.4141 -1.42463 -5.07352 0.853609 43.9983 28.4438 1.89019 3.71818 3.41209 -1.66619e-006 4.11981e-007 -3.78908e-008 -2.38542e-015 3.18055e-015 -3.18055e-015 -0 -3.18055e-015 -0 
